<?xml version="1.0" encoding="UTF-8" standalone="no" ?>
<!DOCTYPE svg PUBLIC "-//W3C//DTD SVG 1.1//EN" "http://www.w3.org/Graphics/SVG/1.1/DTD/svg11.dtd">
<svg xmlns="http://www.w3.org/2000/svg" xmlns:xlink="http://www.w3.org/1999/xlink" version="1.1" width="1080" height="1080" viewBox="0 0 1080 1080" xml:space="preserve">
<desc>Created with Fabric.js 5.2.4</desc>
<defs>
</defs>
<g transform="matrix(1 0 0 1 540 540)" id="0ccbf90d-4a42-4141-9546-7dd3ae77626b"  >
<rect style="stroke: none; stroke-width: 1; stroke-dasharray: none; stroke-linecap: butt; stroke-dashoffset: 0; stroke-linejoin: miter; stroke-miterlimit: 4; fill: rgb(255,255,255); fill-rule: nonzero; opacity: 1; visibility: hidden;" vector-effect="non-scaling-stroke"  x="-540" y="-540" rx="0" ry="0" width="1080" height="1080" />
</g>
<g transform="matrix(1 0 0 1 540 540)" id="0bda76ac-dccc-44d5-86d4-d4f9e03e1171"  >
</g>
<g transform="matrix(1 0 0 1 540 540)"  >
<g style="" vector-effect="non-scaling-stroke"   >
		<g transform="matrix(1.63 0 0 1.63 0 0)"  >
<path style="stroke: none; stroke-width: 1; stroke-dasharray: none; stroke-linecap: butt; stroke-dashoffset: 0; stroke-linejoin: miter; stroke-miterlimit: 4; fill: rgb(255,255,255); fill-rule: nonzero; opacity: 1;" vector-effect="non-scaling-stroke"  transform=" translate(-244.71, -244.71)" d="M 122.825 394.663 C 140.625 414.063 166.025 425.26300000000003 192.325 425.26300000000003 L 409.225 425.26300000000003 C 453.425 425.26300000000003 489.425 389.26300000000003 489.425 345.06300000000005 L 489.425 144.36300000000006 C 489.425 100.16300000000005 453.425 64.16300000000005 409.225 64.16300000000005 L 192.32500000000002 64.16300000000005 C 165.925 64.16300000000005 140.625 75.26300000000005 122.82500000000002 94.76300000000006 L 11.02500000000002 216.46300000000008 C -3.6749999999999794 232.56300000000007 -3.6749999999999794 256.7630000000001 11.02500000000002 272.86300000000006 L 122.825 394.663 z M 29.125 233.063 L 140.925 111.26299999999999 C 154.125 96.86299999999999 172.925 88.66299999999998 192.425 88.66299999999998 L 409.32500000000005 88.66299999999998 C 440.02500000000003 88.66299999999998 465.02500000000003 113.66299999999998 465.02500000000003 144.363 L 465.02500000000003 344.96299999999997 C 465.02500000000003 375.66299999999995 440.02500000000003 400.66299999999995 409.32500000000005 400.66299999999995 L 192.32500000000005 400.66299999999995 C 172.82500000000005 400.66299999999995 154.02500000000003 392.46299999999997 140.82500000000005 378.06299999999993 L 29.125000000000043 256.2629999999999 C 23.025 249.663 23.025 239.663 29.125 233.063 z" stroke-linecap="round" />
</g>
		<g transform="matrix(1.63 0 0 1.63 75.12 -0.08)"  >
<path style="stroke: none; stroke-width: 1; stroke-dasharray: none; stroke-linecap: butt; stroke-dashoffset: 0; stroke-linejoin: miter; stroke-miterlimit: 4; fill: rgb(255,255,255); fill-rule: nonzero; opacity: 1;" vector-effect="non-scaling-stroke"  transform=" translate(-290.67, -244.66)" d="M 225.425 309.763 C 227.82500000000002 312.16299999999995 230.925 313.363 234.125 313.363 C 237.325 313.363 240.425 312.163 242.825 309.763 L 290.625 261.96299999999997 L 338.425 309.763 C 340.825 312.16299999999995 343.925 313.363 347.125 313.363 C 350.325 313.363 353.425 312.163 355.825 309.763 C 360.625 304.96299999999997 360.625 297.263 355.825 292.46299999999997 L 307.925 244.66299999999995 L 355.725 196.86299999999994 C 360.52500000000003 192.06299999999993 360.52500000000003 184.36299999999994 355.725 179.56299999999993 C 350.925 174.76299999999992 343.225 174.76299999999992 338.425 179.56299999999993 L 290.625 227.36299999999994 L 242.825 179.56299999999993 C 238.02499999999998 174.76299999999992 230.325 174.76299999999992 225.52499999999998 179.56299999999993 C 220.72499999999997 184.36299999999994 220.72499999999997 192.06299999999993 225.52499999999998 196.86299999999994 L 273.325 244.66299999999995 L 225.52499999999998 292.46299999999997 C 220.725 297.263 220.725 304.962 225.425 309.763 z" stroke-linecap="round" />
</g>
</g>
</g>
</svg>